<?xml version="1.0" encoding="utf-8"?>
<!-- Generator: Adobe Illustrator 25.3.0, SVG Export Plug-In . SVG Version: 6.00 Build 0)  -->
<svg version="1.1" id="Capa_1" xmlns="http://www.w3.org/2000/svg" xmlns:xlink="http://www.w3.org/1999/xlink" x="0px" y="0px"
	 viewBox="0 0 1920 1080.4" style="enable-background:new 0 0 1920 1080.4;" xml:space="preserve">
<style type="text/css">
	.st0{fill:#A4C9D1;}
	.st1{fill:#E0A065;}
	.st2{fill:#DA8A40;}
</style>
<g>
	<g>
		<path class="st0" d="M0.1,1080.2c0-356,0-711.9,0-1067.8c0-14-1.6-12.5,12.3-12.5c204.2,0,408.2,0,612.4,0c3.2,0,6.3,0.1,9.5,0.1
			c2.9,2.7,5.6,5.7,8.7,8.2c24.9,20.2,49.9,40.2,74.9,60.4c55.7,44.9,111.4,89.9,167.2,134.8c26.2,21.1,47.7,46.1,63.2,76.1
			c1.3,17.1,1.7,34.1,0,51.4c-2.5,27.1-9.8,52.7-20.3,77.8c-14.1,33.3-37.8,59.9-60.1,87.4c-38.9,48-78.2,95.7-117.1,143.7
			c-30.5,37.5-60.7,75.3-91.1,112.8c-39,48-78.2,95.7-117.2,143.7C501,947.1,459.7,998,418.6,1049.1c-8.2,10.2-18,19.2-23.8,31.2
			C263.1,1080.2,131.6,1080.2,0.1,1080.2z"/>
		<path class="st1" d="M496.4,1080.2c8.1-13.6,19-25,29-37.2c132.5-163.2,266-325.8,397.3-490c65.1-81.5,72.3-172.1,29.6-266.9
			c-1-2.3-2.7-4.4-4.1-6.6c-15.5-30-37-54.9-63.2-76.1c-55.7-44.8-111.4-89.8-167.2-134.7c-24.9-20.1-50-40.2-74.9-60.4
			c-3.1-2.5-5.8-5.4-8.7-8.2c1.7,0,3.3,0,4.9,0.1c12,9.8,23.8,19.8,35.8,29.5c58,46.7,116,93.6,173.9,140.1
			c36,28.9,72.9,56.7,97,97.4c14.2,25.7,25.7,52.5,31,81.6c14.2,78-3.7,148-53.6,209.5C807,702,690.3,845.4,573.6,988.9
			c-22.8,28-45.6,56-68.3,84.1c-1.6,2.1-4.8,3.6-3.8,7.1C499.8,1080.2,498.1,1080.2,496.4,1080.2z"/>
		<path class="st0" d="M946,267.1c-24.1-40.6-61.1-68.6-97-97.4c-58.1-46.6-116-93.4-174.1-140.2C663,19.7,651.2,9.8,639.1,0
			c24.1-0.1,48.2,0.1,72.3-0.3c5.9-0.1,9.7,2.9,13.6,6.1c44.1,35.5,88.4,70.9,132.2,106.8c47.9,39.3,77,90,88.5,150.9
			C946.1,264.6,946,265.9,946,267.1z"/>
	</g>
</g>
<g>
	<g>
		<path class="st2" d="M1854.5,511.6c7.9,0,15.8,0,23.7,0c0.9,0.2,1.8,0.6,2.7,0.7c21.1,3.4,39,12.8,54.2,28
			c133.9,134.1,268,268,402,402c37.6,37.6,37.6,97.5,0,135.1c-54,54-108,108-161.9,162c-38.7,38.7-98.1,38.7-136.8,0
			c-85.5-85.5-171-171-256.5-256.5c-48.7-48.7-97.5-97.4-146.2-146.2c-18.9-19-28.1-42.4-27.6-69c0.5-25.5,10.1-47.7,28.2-65.9
			c53.9-54,107.8-108.1,162.1-161.8c6.8-6.7,15-12,23.1-17.2C1831.5,516.5,1843.1,514,1854.5,511.6z"/>
	</g>
</g>
</svg>
